<?xml version="1.0" encoding="UTF-8" standalone="no"?>
<svg
   xmlns:dc="http://purl.org/dc/elements/1.1/"
   xmlns:cc="http://creativecommons.org/ns#"
   xmlns:rdf="http://www.w3.org/1999/02/22-rdf-syntax-ns#"
   xmlns:svg="http://www.w3.org/2000/svg"
   xmlns="http://www.w3.org/2000/svg"
   xmlns:xlink="http://www.w3.org/1999/xlink"
   id="svg80"
   version="1.1"
   viewBox="0 0 7410 3900"
   height="650"
   width="1235">
  <metadata
     id="metadata86">
    <rdf:RDF>
      <cc:Work
         rdf:about="">
        <dc:format>image/svg+xml</dc:format>
        <dc:type
           rdf:resource="http://purl.org/dc/dcmitype/StillImage" />
        <dc:title></dc:title>
      </cc:Work>
    </rdf:RDF>
  </metadata>
  <defs
     id="defs84" />
  <rect
     id="rect49"
     fill="#b22234"
     height="3900"
     width="7410" />
  <path
     id="path51"
     stroke-width="300"
     stroke="#fff"
     d="M0,450H7410m0,600H0m0,600H7410m0,600H0m0,600H7410m0,600H0" />
  <rect
     id="rect53"
     fill="#3c3b6e"
     height="2100"
     width="2964" />
  <g
     style="fill:#e3ded4"
     id="g78"
     fill="#fff">
    <g
       style="fill:#e3ded4"
       id="s18">
      <g
         style="fill:#e3ded4"
         id="s9">
        <g
           style="fill:#e3ded4"
           id="s5">
          <g
             style="fill:#e3ded4"
             id="s4">
            <path
               style="fill:#e3ded4"
               d="M247,90 317.534230,307.082039 132.873218,172.917961H361.126782L176.465770,307.082039z"
               id="s" />
            <use
               style="fill:#e3ded4"
               id="use56"
               y="420"
               xlink:href="#s" />
            <use
               style="fill:#e3ded4"
               id="use58"
               y="840"
               xlink:href="#s" />
            <use
               style="fill:#e3ded4"
               id="use60"
               y="1260"
               xlink:href="#s" />
          </g>
          <use
             style="fill:#e3ded4"
             id="use63"
             y="1680"
             xlink:href="#s" />
        </g>
        <use
           style="fill:#e3ded4"
           id="use66"
           y="210"
           x="247"
           xlink:href="#s4" />
      </g>
      <use
         style="fill:#e3ded4"
         id="use69"
         x="494"
         xlink:href="#s9" />
    </g>
    <use
       style="fill:#e3ded4"
       id="use72"
       x="988"
       xlink:href="#s18" />
    <use
       style="fill:#e3ded4"
       id="use74"
       x="1976"
       xlink:href="#s9" />
    <use
       style="fill:#e3ded4"
       id="use76"
       x="2470"
       xlink:href="#s5" />
  </g>
  <path
     transform="scale(6)"
     id="path1464"
     d="M 494.3152,75.052425 V 50.347313 H 864.46592 1234.6166 V 75.052425 99.757536 H 864.46592 494.3152 Z"
     style="fill:#e3ded4;stroke:none;stroke-width:0.8519004" />
  <path
     transform="scale(6)"
     id="path1468"
     d="m 494.3152,174.72477 v -24.70511 h 370.15072 370.15068 v 24.70511 24.70511 H 864.46592 494.3152 Z"
     style="fill:#e3ded4;stroke:none;stroke-width:0.8519004" />
  <path
     transform="scale(6)"
     id="path1470"
     d="m 494.3152,275.24902 v -24.70511 h 370.15072 370.15068 v 24.70511 24.70511 H 864.46592 494.3152 Z"
     style="fill:#e3ded4;stroke:none;stroke-width:0.8519004" />
  <path
     transform="scale(6)"
     id="path1472"
     d="M 0.2129751,374.92136 V 350.21625 H 617.41481 1234.6166 v 24.70511 24.70511 H 617.41481 0.2129751 Z"
     style="fill:#e3ded4;stroke:none;stroke-width:0.8519004;fill-opacity:1" />
  <path
     transform="scale(6)"
     id="path1474"
     d="M 0.2129751,475.01966 V 450.7405 H 617.41481 1234.6166 v 24.27916 24.27916 H 617.41481 0.2129751 Z"
     style="fill:#e3ded4;stroke:none;stroke-width:0.8519004;fill-opacity:1" />
  <path
     transform="scale(6)"
     id="path1476"
     d="M 0.2129751,575.11796 V 550.41284 H 617.41481 1234.6166 v 24.70512 24.70511 H 617.41481 0.2129751 Z"
     style="fill:#e3ded4;stroke:none;stroke-width:0.8519004;fill-opacity:1" />
  <path
     transform="scale(6)"
     id="path1478"
     d="M 0.2129751,624.95413 V 600.67497 H 617.41481 1234.6166 v 24.27916 24.27916 H 617.41481 0.2129751 Z"
     style="fill:#9b1c2c;stroke:none;stroke-width:0.8519004" />
  <path
     transform="scale(6)"
     id="path1480"
     d="M 0.2129751,524.85583 V 500.15072 H 617.41481 1234.6166 v 24.70511 24.70511 H 617.41481 0.2129751 Z"
     style="fill:#9b1c2c;stroke:none;stroke-width:0.8519004;fill-opacity:1" />
  <path
     transform="scale(6)"
     id="path1482"
     d="M 0.2129751,425.18349 V 400.47837 H 617.41481 1234.6166 v 24.70512 24.70511 H 617.41481 0.2129751 Z"
     style="fill:#9b1c2c;stroke:none;stroke-width:0.8519004;fill-opacity:1" />
  <path
     transform="scale(6)"
     id="path1484"
     d="m 494.3152,324.65924 v -24.70511 h 370.15072 370.15068 v 24.70511 24.70511 H 864.46592 494.3152 Z"
     style="fill:#9b1c2c;stroke:none;stroke-width:0.8519004;fill-opacity:1" />
  <path
     transform="scale(6)"
     id="path1486"
     d="m 494.3152,224.98689 v -24.70511 h 370.15072 370.15068 v 24.70511 24.70512 H 864.46592 494.3152 Z"
     style="fill:#9b1c2c;stroke:none;stroke-width:0.8519004;fill-opacity:1" />
  <path
     transform="scale(6)"
     id="path1488"
     d="m 494.3152,125.31455 v -24.70511 h 370.15072 370.15068 v 24.70511 24.70511 H 864.46592 494.3152 Z"
     style="fill:#9b1c2c;stroke:none;stroke-width:0.8519004;fill-opacity:1" />
  <path
     transform="scale(6)"
     id="path1490"
     d="M 494.3152,24.790301 V 0.08519004 H 864.46592 1234.6166 V 24.790301 49.495413 H 864.46592 494.3152 Z"
     style="fill:#9b1c2c;stroke:none;stroke-width:0.8519004;fill-opacity:1" />
  <path
     transform="scale(6)"
     id="path1494"
     d="M 0.2129751,174.72477 V 0.08519004 H 246.83814 493.4633 V 174.72477 349.36435 H 246.83814 0.2129751 Z m 36.0746529,151.9642 4.980287,-3.6046 5.668467,4.16674 c 3.117657,2.29172 5.769136,3.87748 5.892176,3.52391 0.123041,-0.35356 -0.735812,-3.46394 -1.908562,-6.91197 -2.409857,-7.08528 -2.905379,-5.93572 4.877833,-11.31599 2.224684,-1.53784 4.045621,-3.06809 4.046527,-3.40055 9.37e-4,-0.33246 -3.129713,-0.71581 -6.95693,-0.8519 l -6.958576,-0.24743 -2.311312,-6.8152 c -2.581678,-7.61241 -2.389392,-7.69273 -5.534338,2.31168 l -1.53009,4.86739 -7.308338,0.24401 -7.308337,0.24402 5.537353,4.12701 c 3.045544,2.26985 5.616448,4.20183 5.71312,4.29329 0.09667,0.0914 -0.765825,3.21791 -1.91666,6.9477 -1.150836,3.72978 -2.09248,6.89988 -2.092544,7.04467 -1.76e-4,0.40127 1.658604,-0.67725 7.109924,-4.62278 z m 82.437442,-0.13703 4.7834,-3.48029 5.78111,4.21465 c 3.17961,2.31806 5.91404,4.08172 6.0765,3.91927 0.16246,-0.16247 -0.66218,-3.11074 -1.83252,-6.55172 -1.17036,-3.44099 -2.12792,-6.50299 -2.12792,-6.80445 0,-0.30148 2.58764,-2.43862 5.75032,-4.74922 l 5.75033,-4.2011 -7.30833,-0.24402 -7.30835,-0.24401 -1.53009,-4.86739 c -3.14491,-10.00432 -2.95278,-9.92405 -5.53341,-2.31168 l -2.3104,6.8152 -7.50372,0.42595 -7.50371,0.42595 5.9523,4.2595 5.95231,4.25951 -2.00048,5.89953 c -2.28513,6.73898 -2.53871,8.78265 -0.93561,7.54003 0.58568,-0.45398 3.21741,-2.39155 5.84827,-4.30571 z m 81.44643,0.70972 5.73709,-4.21278 2.78785,2.08303 c 1.53331,1.14567 4.12958,3.08692 5.76948,4.31389 3.55476,2.65966 3.7343,1.92728 1.27785,-5.21251 -0.93709,-2.7237 -1.7038,-5.44784 -1.7038,-6.05362 0,-0.6058 2.58291,-2.94175 5.7398,-5.19101 l 5.7398,-4.08958 -7.53083,-0.42595 -7.53084,-0.42595 -2.11051,-6.70462 c -1.16078,-3.68753 -2.38794,-6.37102 -2.72701,-5.9633 -0.33908,0.40773 -1.47594,3.50597 -2.52634,6.88499 l -1.90982,6.14368 -7.40577,0.24558 -7.40576,0.24557 5.74059,4.21084 c 3.15732,2.31595 5.74059,4.4531 5.74059,4.74921 0,0.29611 -0.95839,3.35616 -2.12975,6.80011 -1.17137,3.44395 -2.12976,6.38626 -2.12976,6.53846 0,0.72189 1.26386,-0.0345 6.57714,-3.93604 z m 82.52387,-0.20582 c 2.3853,-1.78667 4.87711,-3.23829 5.53735,-3.2258 0.66024,0.0124 3.49478,1.75497 6.29896,3.87219 2.80419,2.11722 5.20499,3.53009 5.33511,3.13972 0.13013,-0.39037 -0.72293,-3.53087 -1.89568,-6.9789 -2.41067,-7.08765 -2.88592,-5.97908 4.85751,-11.33065 2.21351,-1.52978 4.03445,-3.06893 4.04653,-3.42034 0.0121,-0.35141 -3.18328,-0.63893 -7.10082,-0.63893 h -7.12278 l -1.94054,-6.8152 c -1.0673,-3.74836 -2.19913,-6.8152 -2.51519,-6.8152 -0.31605,0 -1.46082,3.06684 -2.54392,6.8152 l -1.96929,6.8152 h -7.13456 c -3.924,0 -7.12467,0.28752 -7.11258,0.63893 0.0121,0.35141 1.83302,1.89056 4.04653,3.42034 7.7426,5.351 7.26687,4.24684 4.86824,11.29909 -3.08188,9.06112 -3.26543,8.92492 4.34513,3.22435 z m 85.19579,-2.13519 2.63886,-1.9694 5.73172,4.33902 c 3.15244,2.38647 5.89353,4.17723 6.09128,3.97947 0.19776,-0.19776 -0.598,-3.17491 -1.76835,-6.61589 -1.17036,-3.44099 -2.12792,-6.50299 -2.12792,-6.80445 0,-0.30148 2.58765,-2.43862 5.75033,-4.74922 l 5.75032,-4.2011 -7.43962,-0.24592 -7.43961,-0.24594 -1.82887,-6.14332 c -1.00587,-3.37883 -2.12919,-6.47424 -2.49628,-6.8787 -0.36708,-0.40446 -1.576,2.27903 -2.68648,5.9633 l -2.01907,6.69868 -7.62821,0.42595 -7.62821,0.42595 5.73979,4.08958 c 3.15689,2.24926 5.7398,4.58521 5.7398,5.19101 0,0.60578 -0.76671,3.32992 -1.7038,6.05362 -2.47748,7.20091 -2.27874,7.8741 1.49083,5.05007 1.75704,-1.31632 4.38211,-3.27954 5.83349,-4.36271 z m 80.01047,1.78782 5.12638,-3.62003 5.52237,4.14872 c 3.14067,2.35945 5.6223,3.70855 5.75409,3.12812 0.12746,-0.56132 -0.67449,-3.70322 -1.7821,-6.98199 l -2.01383,-5.9614 6.0416,-4.26141 6.0416,-4.2614 -7.64341,-0.42595 -7.64342,-0.42595 -2.05193,-6.66113 c -1.12856,-3.66363 -2.34938,-6.34711 -2.71293,-5.96331 -0.36354,0.38381 -1.47528,3.46241 -2.47053,6.84133 l -1.80956,6.1435 -7.41808,0.24576 -7.41808,0.24575 5.74059,4.21084 c 3.15732,2.31595 5.74059,4.4531 5.74059,4.74921 0,0.29611 -0.95839,3.35616 -2.12975,6.80011 -1.17136,3.44395 -2.12975,6.40888 -2.12975,6.58874 0,0.46782 1.44796,-0.43804 7.25615,-4.53951 z M 77.661959,291.51214 c 2.798215,-2.10099 4.975554,-3.18329 5.537353,-2.75244 6.797473,5.21298 10.722706,7.65436 10.722706,6.66921 0,-0.64424 -0.76671,-3.39983 -1.7038,-6.12354 -0.937091,-2.7237 -1.703801,-5.43662 -1.703801,-6.02872 0,-0.59208 2.524249,-2.92804 5.609449,-5.19101 l 5.609444,-4.11447 -7.254047,-0.24528 -7.254042,-0.24528 -2.284005,-6.85823 c -1.256198,-3.77203 -2.549252,-6.53682 -2.873451,-6.14398 -0.324199,0.39285 -1.448875,3.47892 -2.49928,6.85794 l -1.909827,6.14367 -7.415502,0.24558 -7.415502,0.24558 5.750328,4.1213 c 3.16268,2.26672 5.750327,4.40387 5.750327,4.74922 0,0.34534 -0.958388,3.44568 -2.129751,6.88963 -1.171363,3.44396 -2.129751,6.39975 -2.129751,6.56845 0,0.56113 2.929431,-1.28593 7.593152,-4.78763 z m 83.736191,-1.12675 3.15765,-2.44246 5.78731,4.23691 c 3.18301,2.3303 5.88797,3.9641 6.01101,3.63067 0.12304,-0.33343 -0.73582,-3.42735 -1.90857,-6.87538 -2.41066,-7.08765 -2.88591,-5.97907 4.85751,-11.33064 2.21351,-1.52979 4.03445,-3.05343 4.04653,-3.3859 0.0121,-0.33245 -3.11828,-0.71581 -6.95636,-0.8519 l -6.97834,-0.24742 -2.13976,-6.60223 c -1.17686,-3.63123 -2.3737,-6.60223 -2.65963,-6.60223 -0.28593,0 -1.40193,3.05256 -2.47999,6.78346 l -1.96011,6.78345 -7.3567,0.24473 -7.35671,0.24472 5.53735,4.127 c 3.04555,2.26986 5.63237,4.21775 5.7485,4.32866 0.11612,0.11091 -0.74643,3.01701 -1.91678,6.45799 -1.17035,3.44098 -2.12791,6.59865 -2.12791,7.01703 0,0.77889 3.09414,-1.18417 8.695,-5.51646 z m 82.93703,-0.36945 2.60843,-1.9462 5.85949,4.21848 c 3.22272,2.32017 5.97749,4.10048 6.12171,3.95626 0.14422,-0.14422 -0.69535,-3.07757 -1.8657,-6.51855 -1.17036,-3.44099 -2.12792,-6.49861 -2.12792,-6.79471 0,-0.29612 2.58327,-2.43326 5.74059,-4.74922 l 5.74059,-4.21083 -7.30416,-0.2441 -7.30417,-0.24409 -2.01051,-6.41076 c -1.10578,-3.52591 -2.2962,-6.58731 -2.64537,-6.8031 -0.34917,-0.21581 -1.53292,2.58719 -2.63056,6.22889 l -1.99568,6.62126 -7.55086,0.42595 -7.55087,0.42595 5.97836,4.22083 5.97836,4.22084 -2.01972,5.93821 c -2.799,8.22942 -2.67064,8.88536 1.17492,6.00439 1.75704,-1.31631 4.36843,-3.26909 5.80307,-4.3395 z m 80.37789,1.4962 c 2.79822,-2.10099 4.97556,-3.18329 5.53735,-2.75244 6.72928,5.16068 10.72271,7.65038 10.72271,6.68506 0,-0.63553 -0.90022,-3.8103 -2.00048,-7.05505 l -2.00048,-5.89954 5.95231,-4.2595 5.95229,-4.2595 -7.51036,-0.42595 -7.51037,-0.42595 -2.03819,-6.71323 c -1.121,-3.69227 -2.35908,-6.37575 -2.75127,-5.9633 -0.39219,0.41246 -1.52737,3.51449 -2.52262,6.89342 l -1.80956,6.14349 -7.42781,0.24576 -7.42782,0.24576 5.75033,4.1213 c 3.16268,2.26672 5.75032,4.40387 5.75032,4.74922 0,0.34534 -0.95838,3.44568 -2.12975,6.88963 -1.17136,3.44396 -2.12975,6.39975 -2.12975,6.56845 0,0.56113 2.92943,-1.28593 7.59315,-4.78763 z m 83.72342,-1.11663 3.14487,-2.43235 5.80008,4.2634 c 3.19004,2.34486 5.90075,3.97411 6.02379,3.62055 0.12304,-0.35357 -0.73868,-3.47239 -1.91494,-6.93073 -1.17626,-3.45834 -2.04364,-6.37864 -1.92751,-6.48955 0.11613,-0.11091 2.70295,-2.0588 5.74849,-4.32866 l 5.53735,-4.127 -7.34474,-0.24455 -7.34475,-0.24455 -1.93155,-6.78363 c -1.06236,-3.731 -2.21367,-6.78363 -2.55849,-6.78363 -0.34481,0 -1.50908,3.0529 -2.58726,6.78422 l -1.96034,6.78423 -7.30419,0.24395 -7.30419,0.24396 5.53735,4.127 c 3.04554,2.26986 5.63236,4.21775 5.74849,4.32866 0.11613,0.11091 -0.74642,3.01701 -1.91677,6.45799 -1.17036,3.44098 -2.12792,6.59865 -2.12792,7.01703 0,0.77821 3.09253,-1.18309 8.68223,-5.50634 z m -370.516479,-34.9756 3.205071,-2.48002 5.739883,4.28449 c 3.156937,2.35648 5.840553,4.00718 5.963593,3.66823 0.123041,-0.33893 -0.738683,-3.44581 -1.914941,-6.90415 -1.176258,-3.45834 -2.043637,-6.37864 -1.927509,-6.48954 0.116126,-0.11091 2.702948,-2.05881 5.748492,-4.32866 l 5.537353,-4.12701 -7.19241,-0.42595 -7.19241,-0.42595 -2.138659,-6.60223 c -1.176261,-3.63122 -2.372602,-6.60223 -2.658533,-6.60223 -0.285931,0 -1.401925,3.05256 -2.479986,6.78347 l -1.960111,6.78345 -7.346968,0.24472 -7.346968,0.24472 5.740591,4.21083 c 3.157325,2.31596 5.740591,4.26143 5.740591,4.32327 0,0.0618 -0.958388,2.93021 -2.129751,6.37416 -1.171363,3.44395 -2.129751,6.60404 -2.129751,7.02243 0,0.78138 3.100057,-1.18807 8.742423,-5.55403 z m 84.635039,-1.60507 c 0.59156,-0.45448 3.12793,0.86353 6.76645,3.51616 3.2011,2.33372 5.93714,4.12618 6.08008,3.98324 0.14294,-0.14295 -0.69768,-3.07525 -1.86802,-6.51622 -1.17036,-3.44099 -2.12792,-6.5389 -2.12792,-6.88425 0,-0.34535 2.58764,-2.48249 5.75032,-4.74921 l 5.75033,-4.12131 -7.3139,-0.24409 -7.31391,-0.2441 -2.01051,-6.41075 c -1.10578,-3.52592 -2.2962,-6.58732 -2.64536,-6.80311 -0.34918,-0.2158 -1.53293,2.5872 -2.63056,6.22889 l -1.99569,6.62126 -7.48098,0.42595 -7.48098,0.42595 5.91174,4.21125 5.91173,4.21124 -2.02297,5.9478 c -1.11263,3.27129 -2.02297,6.46777 -2.02297,7.10331 0,0.96564 4.05665,-1.56507 10.74312,-6.70201 z m 78.19393,2.98587 5.02487,-3.63706 2.64224,1.82732 c 1.45323,1.00502 4.07981,2.9396 5.83686,4.29906 3.82476,2.95929 3.95525,2.30765 1.17491,-5.8669 l -2.01972,-5.9382 5.97538,-4.22085 5.97537,-4.22083 -7.30405,-0.24528 -7.30406,-0.24528 -2.28401,-6.85823 c -1.25619,-3.77203 -2.58883,-6.53681 -2.96141,-6.14397 -0.37257,0.39284 -1.49171,3.47882 -2.48696,6.85775 l -1.80955,6.1435 -7.41446,0.24575 -7.41445,0.24576 5.73696,4.08957 c 3.15533,2.24927 5.73697,4.38641 5.73697,4.74921 0,0.36281 -0.95839,3.47743 -2.12975,6.92138 -1.17137,3.44395 -2.12976,6.40888 -2.12976,6.58874 0,0.46759 1.45675,-0.46727 7.15462,-4.59144 z m 82.50002,-0.18375 4.89054,-3.55945 5.75822,4.21566 c 3.16701,2.31862 5.85887,3.94285 5.98191,3.60942 0.12304,-0.33343 -0.74193,-3.44532 -1.92215,-6.91531 -1.18021,-3.47001 -1.85592,-6.56308 -1.50156,-6.87351 0.35437,-0.31043 2.94443,-2.2488 5.7557,-4.30747 l 5.11141,-3.74305 -7.19241,-0.42595 -7.19242,-0.42595 -2.13865,-6.60223 c -1.17626,-3.63122 -2.39613,-6.60223 -2.71082,-6.60223 -0.3147,0 -1.45432,3.05291 -2.5325,6.78422 l -1.96033,6.78423 -7.3042,0.24395 -7.30419,0.24396 5.1114,3.74305 c 2.81127,2.05867 5.40134,3.99704 5.7557,4.30747 0.35436,0.31043 -0.31651,3.3893 -1.49082,6.84194 -2.43194,7.15019 -2.59864,8.2508 -1.07025,7.06611 0.58568,-0.45398 3.26562,-2.42717 5.95542,-4.38486 z m 84.63616,-1.61932 2.63287,-1.82064 5.83505,4.20089 c 3.20929,2.31049 5.95307,4.0829 6.09729,3.93867 0.14421,-0.14422 -0.69535,-3.07757 -1.8657,-6.51854 -1.17036,-3.44099 -2.12792,-6.5389 -2.12792,-6.88425 0,-0.34535 2.58765,-2.48249 5.75033,-4.74921 l 5.75032,-4.12131 -7.39486,-0.24528 -7.39485,-0.24528 -1.89678,-6.3893 c -1.04322,-3.51413 -2.20055,-6.57705 -2.57181,-6.80651 -0.37128,-0.22946 -1.6136,2.56443 -2.76071,6.20864 l -2.08568,6.62583 -7.45348,0.42595 -7.45348,0.42595 5.97836,4.22083 5.97836,4.22085 -2.01972,5.9382 c -2.78034,8.17455 -2.64984,8.82619 1.17492,5.8669 1.75704,-1.35946 4.37941,-3.29104 5.82749,-4.29239 z m 79.91494,1.80307 5.02486,-3.63706 2.64224,1.82732 c 1.45323,1.00502 4.07982,2.9396 5.83686,4.29906 3.82476,2.95929 3.95526,2.30765 1.17492,-5.8669 l -2.01972,-5.9382 5.97836,-4.22085 5.97836,-4.22083 -7.51719,-0.42595 -7.51719,-0.42595 -2.01326,-6.63122 c -1.10729,-3.64716 -2.30618,-6.45016 -2.66422,-6.22889 -0.35803,0.22127 -1.5557,3.28715 -2.66147,6.81307 l -2.01051,6.41075 -7.31391,0.2441 -7.3139,0.24409 5.75032,4.12131 c 3.16268,2.26672 5.75033,4.40386 5.75033,4.74921 0,0.34535 -0.95839,3.44569 -2.12975,6.88964 -1.17136,3.44395 -2.12975,6.40888 -2.12975,6.58874 0,0.46759 1.45674,-0.46727 7.15462,-4.59144 z M 77.185058,221.83853 c 2.742575,-2.01218 5.426061,-3.39713 5.963302,-3.07763 0.537242,0.3195 2.999582,2.09645 5.471865,3.9488 2.472283,1.85234 4.718574,3.14438 4.991761,2.87119 0.273188,-0.27319 -0.451584,-3.31715 -1.610603,-6.76435 l -2.107312,-6.26765 5.969633,-4.21678 5.969636,-4.21678 -7.304061,-0.24527 -7.304058,-0.24528 -2.284005,-6.85824 c -1.256198,-3.77202 -2.588833,-6.53681 -2.961408,-6.14397 -0.372575,0.39284 -1.491709,3.47883 -2.486964,6.85776 l -1.809554,6.14349 -7.286935,0.24576 -7.286935,0.24575 5.609445,4.11448 c 3.085194,2.26297 5.609444,4.40012 5.609444,4.74922 0,0.3491 -0.958388,3.45251 -2.129751,6.89646 -1.171363,3.44395 -2.129751,6.40888 -2.129751,6.58874 0,0.4711 1.48567,-0.49461 7.116251,-4.6257 z m 82.587212,-0.18557 4.93939,-3.59553 5.70937,4.26176 c 3.14016,2.34397 5.81005,3.98445 5.93309,3.64551 0.12304,-0.33894 -0.74193,-3.45535 -1.92216,-6.92534 -1.18021,-3.47 -1.85591,-6.56307 -1.50156,-6.87351 0.35437,-0.31043 2.94444,-2.24879 5.75571,-4.30747 l 5.1114,-3.74305 -7.19241,-0.42595 -7.19241,-0.42595 -2.13866,-6.60222 c -1.17626,-3.63123 -2.39613,-6.60223 -2.71082,-6.60223 -0.31469,0 -1.45431,3.0529 -2.5325,6.78422 l -1.96033,6.78423 -7.29446,0.24395 -7.29445,0.24395 5.74059,4.21084 c 3.15732,2.31596 5.74059,4.26142 5.74059,4.32326 0,0.0618 -0.95839,2.93021 -2.12975,6.37416 -2.42654,7.1343 -2.59272,8.23459 -1.06488,7.05031 0.58568,-0.45398 3.2876,-2.4434 6.00425,-4.42094 z m 93.14556,0.67902 c 3.19148,2.34352 5.90765,4.15599 6.03594,4.0277 0.12829,-0.12829 -0.72431,-3.0486 -1.89466,-6.48958 -1.17036,-3.44099 -2.12792,-6.55318 -2.12792,-6.91598 0,-0.3628 2.58164,-2.49995 5.73697,-4.74921 l 5.73696,-4.08958 -7.30054,-0.24409 -7.30054,-0.2441 -2.01051,-6.41075 c -1.10578,-3.52591 -2.29953,-6.58937 -2.65277,-6.80768 -0.35324,-0.21832 -1.58081,2.58468 -2.72793,6.22889 l -2.08567,6.62583 -7.44503,0.42595 -7.44502,0.42595 6.00052,4.13081 6.00053,4.1308 -2.05034,6.02824 c -1.12769,3.31553 -2.05034,6.53018 -2.05034,7.14367 0,0.61349 2.64998,-0.81805 5.88883,-3.1812 l 5.88883,-4.29663 z m 71.31834,-0.49345 c 2.74257,-2.01218 5.42606,-3.39713 5.9633,-3.07763 0.53724,0.3195 2.99959,2.09645 5.47187,3.9488 2.47228,1.85234 4.71857,3.14438 4.99176,2.87119 0.27319,-0.27319 -0.45304,-3.32148 -1.61385,-6.77399 l -2.11055,-6.27729 5.90292,-4.20714 5.90292,-4.20714 -7.23411,-0.24527 -7.2341,-0.24528 -2.26085,-6.78874 c -1.24347,-3.7338 -2.53694,-6.61811 -2.87437,-6.40957 -0.33743,0.20855 -1.51824,3.26401 -2.62402,6.78992 l -2.01051,6.41075 -7.17303,0.2441 -7.17302,0.24409 5.60944,4.11448 c 3.0852,2.26297 5.60945,4.40012 5.60945,4.74922 0,0.3491 -0.95838,3.45251 -2.12975,6.89646 -1.17136,3.44395 -2.12975,6.40888 -2.12975,6.58874 0,0.4711 1.48567,-0.49461 7.11625,-4.6257 z m 84.66708,-1.79383 2.75974,-2.06159 5.75491,4.28715 c 3.1652,2.35793 5.89212,4.14995 6.05981,3.98226 0.2417,-0.2417 -2.07162,-7.93132 -3.85036,-12.79886 -0.17778,-0.48646 2.26991,-2.78659 5.43929,-5.1114 l 5.76251,-4.22693 -7.23142,-0.24498 -7.23141,-0.24498 -2.04081,-6.7832 c -1.12244,-3.73076 -2.29043,-6.78319 -2.59553,-6.78319 -0.30511,0 -1.51714,2.971 -2.6934,6.60223 l -2.13865,6.60222 -7.1859,0.42595 -7.18589,0.42595 5.74381,4.21084 c 3.15909,2.31596 5.74381,4.26142 5.74381,4.32326 0,0.0618 -0.95839,2.93021 -2.12975,6.37416 -1.17136,3.44395 -2.12975,6.62344 -2.12975,7.06553 0,0.44209 1.43758,-0.27319 3.19463,-1.58951 1.75704,-1.31632 4.43651,-3.32103 5.95436,-4.45491 z m -372.500966,-33.45565 4.664358,-3.52163 5.613868,4.00598 c 3.087627,2.20328 5.790288,3.82955 6.005913,3.61392 0.215625,-0.21562 0.03196,-1.33917 -0.408163,-2.49676 -0.440116,-1.15758 -1.374239,-4.03767 -2.07583,-6.40019 l -1.275621,-4.29547 5.666056,-4.15374 5.666055,-4.15374 -7.185894,-0.42595 -7.185893,-0.42595 -2.138659,-6.60223 c -1.176261,-3.63123 -2.396132,-6.60223 -2.710822,-6.60223 -0.31469,0 -1.454313,3.05291 -2.532496,6.78422 l -1.960332,6.78423 -7.304195,0.24395 -7.304194,0.24396 5.750328,4.1213 c 3.16268,2.26672 5.750327,4.21219 5.750327,4.32327 0,0.11107 -0.958388,3.01973 -2.129751,6.46368 -1.171363,3.44396 -2.129751,6.42728 -2.129751,6.62961 0,0.80835 2.795277,-0.79199 7.224696,-4.13623 z m 80.869586,1.07333 c 2.3853,-1.78668 4.80256,-3.52603 5.37169,-3.86523 0.60465,-0.36037 3.24276,0.98991 6.34673,3.2485 2.92157,2.12588 5.59576,3.86523 5.94265,3.86523 0.34688,0 -0.30485,-2.75063 -1.4483,-6.11251 -1.14346,-3.36189 -2.079,-6.39815 -2.079,-6.74726 0,-0.3491 2.52424,-2.48625 5.60944,-4.74922 l 5.60944,-4.11447 -7.17301,-0.2441 -7.17303,-0.24409 -2.01051,-6.41076 c -1.10578,-3.52591 -2.29953,-6.58936 -2.65277,-6.80768 -0.35324,-0.21831 -1.58081,2.58469 -2.72793,6.22889 l -2.08567,6.62584 -7.28246,0.42595 -7.28247,0.42595 5.84057,4.12314 5.84057,4.12314 -2.05294,6.0359 c -3.02581,8.89623 -2.96775,8.96769 3.407,4.19278 z m 83.08241,-0.61158 c 3.03253,-2.23243 5.67636,-3.60282 6.26999,-3.24998 0.56455,0.33555 3.06886,2.10669 5.56513,3.93586 2.49627,1.82917 4.74257,3.12187 4.99177,2.87268 0.24919,-0.2492 -0.50248,-3.29515 -1.67039,-6.76879 l -2.12346,-6.3157 6.07665,-4.37997 6.07666,-4.37997 -7.38417,-0.002 -7.38417,-0.002 -2.27161,-6.82104 c -1.24939,-3.75157 -2.54769,-6.65042 -2.88512,-6.44187 -0.33744,0.20854 -1.51825,3.264 -2.62403,6.78991 l -2.01051,6.41076 -7.18808,0.24409 -7.18807,0.2441 5.6245,4.04188 c 3.09347,2.22304 5.6245,4.36018 5.6245,4.74922 0,0.38903 -0.93555,3.45796 -2.07901,6.81985 -1.14344,3.36188 -1.76065,6.11251 -1.37157,6.11251 0.38909,0 3.06703,-1.73703 5.95099,-3.86008 z m 82.36847,-0.0165 5.43256,-3.87659 5.57657,3.97936 c 3.06712,2.18865 5.74978,3.80615 5.96146,3.59446 0.2117,-0.2117 -0.57266,-3.20025 -1.74301,-6.64123 -1.17036,-3.44098 -2.12792,-6.30692 -2.12792,-6.36875 0,-0.0618 2.58472,-2.00731 5.74381,-4.32327 l 5.74381,-4.21083 -7.18589,-0.42595 -7.1859,-0.42595 -2.13865,-6.60223 c -1.17626,-3.63123 -2.36619,-6.60223 -2.64428,-6.60223 -0.2781,0 -1.46802,2.971 -2.64428,6.60223 l -2.13866,6.60223 -7.19241,0.42595 -7.19241,0.42595 5.75033,4.1213 c 3.16268,2.26672 5.75032,4.21219 5.75032,4.32327 0,0.11107 -0.95838,3.01973 -2.12975,6.46368 -1.17136,3.44396 -2.12975,6.38627 -2.12975,6.53847 0,0.78624 1.55697,-0.0768 6.49405,-3.59986 z m 81.60023,0.6281 c 2.38531,-1.78667 4.79882,-3.52371 5.36336,-3.86008 0.59459,-0.35427 3.23255,1.01246 6.27,3.2485 2.88395,2.12305 5.56189,3.86008 5.95098,3.86008 0.38909,0 -0.22812,-2.75063 -1.37157,-6.11251 -1.14345,-3.36188 -2.079,-6.39814 -2.079,-6.74725 0,-0.3491 2.52425,-2.48625 5.60945,-4.74922 l 5.60944,-4.11447 -7.17302,-0.2441 -7.17303,-0.24409 -2.01051,-6.41076 c -1.10577,-3.52591 -2.28658,-6.58137 -2.62402,-6.78992 -0.33743,-0.20854 -1.63573,2.69031 -2.88512,6.44188 l -2.27161,6.82104 -7.38417,0.002 -7.38417,0.002 6.08252,4.3842 6.08253,4.38419 -2.036,5.98609 c -3.00668,8.84001 -2.94556,8.91395 3.42394,4.14297 z m 83.08241,-0.61158 c 3.03254,-2.23243 5.67636,-3.60282 6.27,-3.24998 0.56454,0.33555 3.06885,2.10669 5.56512,3.93586 2.49628,1.82917 4.74258,3.12187 4.99177,2.87268 0.24919,-0.2492 -0.50247,-3.29515 -1.67039,-6.76879 l -2.12346,-6.31569 6.07666,-4.37998 6.07665,-4.37997 -7.38417,-0.002 -7.38417,-0.002 -2.27161,-6.82104 c -1.24939,-3.75157 -2.54769,-6.65042 -2.88512,-6.44187 -0.33744,0.20854 -1.51825,3.264 -2.62402,6.78992 l -2.01051,6.41075 -7.17303,0.2441 -7.17302,0.24409 5.60944,4.11448 c 3.0852,2.26297 5.60945,4.40011 5.60945,4.74921 0,0.34911 -0.93555,3.38537 -2.079,6.74726 -1.14345,3.36188 -1.76066,6.11251 -1.37157,6.11251 0.38909,0 3.06703,-1.73703 5.95098,-3.86008 z M 76.861977,152.0984 c 5.931739,-4.3667 5.386223,-4.43196 13.052796,1.56171 1.778657,1.39054 3.424273,2.33789 3.656935,2.10523 0.232671,-0.23267 -0.446344,-3.37803 -1.508911,-6.98969 -1.669878,-5.67588 -1.761475,-6.66409 -0.675285,-7.28491 0.691156,-0.39504 3.338504,-2.27951 5.882995,-4.18771 l 4.626333,-3.46948 h -7.325052 -7.325057 l -2.271609,-6.82104 c -1.249389,-3.75157 -2.547696,-6.65042 -2.885127,-6.44187 -0.33743,0.20854 -1.51824,3.264 -2.624021,6.78992 l -2.010512,6.41075 -7.171248,0.2441 -7.171248,0.24409 5.233822,3.68668 c 2.878601,2.02767 5.409218,4.14374 5.623593,4.70239 0.214375,0.55865 -0.552943,3.78743 -1.70515,7.17507 -1.152208,3.38762 -1.776578,6.15932 -1.38749,6.15932 0.389089,0 3.081995,-1.74805 5.984236,-3.88456 z m 82.357453,-0.008 5.45479,-3.89246 5.57286,3.97671 c 3.06507,2.18718 5.74927,3.80028 5.9649,3.58466 0.21563,-0.21563 0.0319,-1.33917 -0.40817,-2.49676 -0.44011,-1.15759 -1.38393,-4.07032 -2.09737,-6.47274 l -1.29716,-4.36803 5.69411,-4.08119 5.69412,-4.08142 -7.19241,-0.42595 -7.19241,-0.42595 -2.13866,-6.60223 c -1.17626,-3.63122 -2.36618,-6.60222 -2.64428,-6.60222 -0.27809,0 -1.46802,2.971 -2.64428,6.60222 l -2.13865,6.60223 -7.18241,0.42595 -7.1824,0.42595 5.74032,4.08958 c 3.15718,2.24926 5.74032,4.19473 5.74032,4.32325 0,0.12854 -0.95839,3.05148 -2.12975,6.49543 -1.17137,3.44395 -2.12975,6.38626 -2.12975,6.53846 0,0.78674 1.5592,-0.0785 6.51628,-3.61572 z m 81.47881,0.64248 c 2.43985,-1.78749 4.90175,-3.52684 5.47088,-3.86523 0.60369,-0.35894 3.24768,0.99498 6.34672,3.24999 2.92158,2.12587 5.59577,3.86522 5.94265,3.86522 0.34689,0 -0.30485,-2.75063 -1.44829,-6.11251 -1.14346,-3.36212 -2.07901,-6.43105 -2.07901,-6.82008 0,-0.38903 2.53102,-2.52618 5.6245,-4.74921 l 5.6245,-4.04189 -7.18807,-0.24409 -7.18808,-0.2441 -2.01051,-6.41075 c -1.10578,-3.52592 -2.28659,-6.58138 -2.62403,-6.78992 -0.33743,-0.20855 -1.63573,2.6903 -2.88512,6.44187 l -2.27161,6.82104 h -7.37885 -7.37886 l 6.09077,4.34607 6.09078,4.34605 -2.04956,6.02596 c -3.01306,8.85874 -3.03516,8.83083 3.31119,4.18135 z m 83.13022,-0.63975 c 6.0097,-4.37294 5.45513,-4.43909 13.13743,1.56688 1.77865,1.39054 3.44991,2.31225 3.71392,2.04825 0.264,-0.264 -0.48161,-3.34004 -1.6569,-6.83563 l -2.13689,-6.35563 6.08477,-4.34177 6.08476,-4.34178 h -7.37885 -7.37885 l -2.27161,-6.82104 c -1.24939,-3.75157 -2.5477,-6.65042 -2.88513,-6.44187 -0.33743,0.20854 -1.51824,3.264 -2.62402,6.78992 l -2.01051,6.41075 -7.18808,0.2441 -7.18807,0.24409 5.6245,4.04189 c 3.09347,2.22303 5.62449,4.36018 5.62449,4.74921 0,0.38903 -0.93555,3.45796 -2.079,6.81985 -1.14345,3.36188 -1.79518,6.11251 -1.4483,6.11251 0.34689,0 3.03623,-1.75038 5.97634,-3.88973 z m 82.37538,-0.0186 5.47703,-3.90834 5.59509,3.99258 c 3.07729,2.19592 5.75995,3.82771 5.96146,3.6262 0.20151,-0.20151 -0.59118,-3.18173 -1.76153,-6.62271 -1.17036,-3.44124 -2.12792,-6.36175 -2.12792,-6.49029 0,-0.12852 2.58314,-2.07399 5.74032,-4.32325 l 5.74031,-4.08958 -7.18239,-0.42595 -7.18241,-0.42595 -2.13865,-6.60223 c -1.17626,-3.63122 -2.36619,-6.60222 -2.64428,-6.60222 -0.2781,0 -1.46803,2.971 -2.64429,6.60222 l -2.13865,6.60223 -7.18241,0.42595 -7.18239,0.42595 5.74031,4.08958 c 3.15718,2.24926 5.74032,4.19473 5.74032,4.32325 0,0.12854 -0.95839,3.05148 -2.12975,6.49543 -1.17136,3.44395 -2.12975,6.38626 -2.12975,6.53846 0,0.75545 1.43034,-0.0499 6.44958,-3.63159 z M 35.608761,117.15984 c 3.361674,-2.39884 5.874779,-3.64676 6.541909,-3.24849 0.595801,0.35569 3.106051,2.16225 5.578334,4.0146 2.472282,1.85234 4.668959,3.194 4.881503,2.98145 0.212544,-0.21254 -0.525319,-3.34158 -1.639694,-6.95341 l -2.026138,-6.56699 5.450664,-3.88951 c 2.997865,-2.13923 5.450664,-4.239219 5.450664,-4.666634 0,-0.427416 -3.191026,-0.777121 -7.091169,-0.777121 h -7.091169 l -2.00377,-6.389253 c -1.102074,-3.514089 -2.252139,-6.389253 -2.555701,-6.389253 -0.303562,0 -1.453627,2.875164 -2.555701,6.389253 l -2.00377,6.389253 h -7.091169 c -3.900143,0 -7.091169,0.309419 -7.091169,0.687595 0,0.378175 2.491809,2.51721 5.537353,4.75341 3.045544,2.23619 5.537352,4.15976 5.537352,4.27459 0,0.11483 -0.958388,3.02656 -2.129751,6.47051 -1.171363,3.44395 -2.129751,6.38627 -2.129751,6.53847 0,0.75509 1.428617,-0.0487 6.431173,-3.61847 z m 80.340079,1.46966 c 7.58283,-5.92497 7.03827,-5.86385 13.18212,-1.47968 3.00998,2.14787 5.66991,3.90523 5.91094,3.90523 0.24104,0 -0.46961,-2.94247 -1.5792,-6.53882 -2.29612,-7.44204 -2.39134,-7.18423 4.3747,-11.84418 2.55362,-1.75874 4.64294,-3.517353 4.64294,-3.908017 0,-0.390665 -3.22726,-0.710298 -7.1717,-0.710298 h -7.1717 l -1.87868,-5.750327 c -1.03328,-3.162681 -2.17147,-6.071384 -2.52932,-6.463795 -0.35785,-0.392402 -1.58724,2.099407 -2.73199,5.537353 l -2.08137,6.250819 -7.38538,0.24614 c -4.06196,0.135384 -7.3732,0.518739 -7.35832,0.8519 0.0149,0.33317 2.67396,2.431315 5.90906,4.662555 l 5.882,4.0568 -2.0755,6.10225 c -2.9585,8.69833 -2.86422,8.93078 2.0614,5.08207 z m 84.0993,-1.3853 c 2.77578,-2.09598 5.33332,-3.82107 5.68341,-3.83355 0.3501,-0.0125 2.99243,1.7116 5.87184,3.83131 2.87943,2.11971 5.39916,3.69017 5.59941,3.48993 0.20025,-0.20025 -0.42947,-2.93333 -1.39937,-6.07351 -0.9699,-3.14017 -1.75754,-6.14822 -1.75033,-6.68455 0.007,-0.53633 2.49312,-2.70024 5.52423,-4.80869 3.0311,-2.10846 5.517,-4.106145 5.52422,-4.439315 0.007,-0.333161 -3.31029,-0.716516 -7.37225,-0.8519 l -7.38538,-0.24614 -2.08136,-6.250819 c -1.14475,-3.437946 -2.37415,-5.929755 -2.732,-5.537353 -0.35785,0.392411 -1.49604,3.301114 -2.52932,6.463795 l -1.87868,5.750327 h -7.1717 c -3.94444,0 -7.16596,0.287517 -7.15895,0.638926 0.007,0.351408 2.48251,2.364019 5.50109,4.472479 3.01859,2.10845 5.50466,4.2456 5.5246,4.74921 0.0199,0.50361 -0.89928,3.66629 -2.04274,7.02818 -1.14344,3.36188 -1.78528,6.11252 -1.42629,6.11252 0.35898,0 2.92379,-1.71489 5.69957,-3.81085 z m 82.61174,-0.0843 c 3.36167,-2.39884 5.87477,-3.64676 6.5419,-3.24849 0.5958,0.35568 3.10606,2.16225 5.57834,4.01459 4.83688,3.62401 5.80475,3.71098 4.54925,0.40879 -0.44011,-1.15759 -1.38743,-4.0821 -2.10515,-6.49892 l -1.30494,-4.39421 5.48892,-3.91681 c 3.01891,-2.15427 5.48892,-4.266539 5.48892,-4.693954 0,-0.427416 -3.19103,-0.777121 -7.09117,-0.777121 h -7.09117 l -2.00377,-6.389253 c -1.10207,-3.514089 -2.25214,-6.389253 -2.5557,-6.389253 -0.30357,0 -1.45363,2.875164 -2.5557,6.389253 l -2.00378,6.389253 h -7.09116 c -3.90015,0 -7.09117,0.309419 -7.09117,0.687595 0,0.378175 2.49181,2.51721 5.53735,4.75341 3.04555,2.23619 5.53735,4.15976 5.53735,4.27459 0,0.11483 -0.95838,3.02656 -2.12975,6.47051 -1.17136,3.44395 -2.12975,6.38627 -2.12975,6.53847 0,0.75509 1.42862,-0.0487 6.43118,-3.61847 z m 82.25779,0.0616 c 2.86413,-2.10845 5.45285,-3.82333 5.75272,-3.81084 0.29986,0.0125 2.8163,1.73757 5.59209,3.83355 2.77578,2.09596 5.34058,3.81085 5.69957,3.81085 0.35899,0 -0.28285,-2.75064 -1.4263,-6.11252 -1.14345,-3.36189 -2.079,-6.42952 -2.079,-6.81696 0,-0.38745 2.39597,-2.46298 5.32438,-4.61231 2.9284,-2.14932 5.45216,-4.256982 5.60834,-4.683691 0.15664,-0.427943 -2.96371,-0.775834 -6.95872,-0.775834 h -7.24269 l -1.87869,-5.750327 c -1.03328,-3.162681 -2.17147,-6.071384 -2.52932,-6.463795 -0.35785,-0.392402 -1.58724,2.099407 -2.73199,5.537353 l -2.08136,6.250819 -7.38538,0.24614 c -4.06197,0.135384 -7.36906,0.518739 -7.34912,0.8519 0.0199,0.33317 2.50601,2.330855 5.5246,4.439315 3.01858,2.10845 5.49407,4.4444 5.50109,5.19101 0.007,0.74661 -0.75396,3.58594 -1.69105,6.30964 -1.7543,5.09897 -2.01284,6.38926 -1.28024,6.38926 0.23296,0 2.76694,-1.7251 5.63107,-3.83356 z m 82.18158,0.0227 c 2.77579,-2.09597 5.29223,-3.82107 5.59209,-3.83355 0.29987,-0.0125 2.92477,1.72904 5.83313,3.87004 2.90835,2.14101 5.48433,3.69632 5.7244,3.45625 0.24007,-0.24008 -0.5263,-3.3001 -1.70307,-6.80005 l -2.13955,-6.36356 5.84286,-4.12087 c 3.21358,-2.26648 5.85948,-4.393458 5.87978,-4.726628 0.0203,-0.333161 -3.28651,-0.716516 -7.34848,-0.8519 l -7.38538,-0.24614 -2.08136,-6.250819 c -1.14475,-3.437946 -2.37414,-5.929755 -2.73199,-5.537352 -0.35785,0.392411 -1.49604,3.301114 -2.52932,6.463794 l -1.87869,5.750328 h -7.1717 c -3.94443,4.2e-5 -7.17169,0.319675 -7.17169,0.71034 0,0.390664 2.08932,2.149277 4.64294,3.908017 6.85486,4.72112 6.76691,4.48416 4.41391,11.89386 -1.13338,3.56903 -1.78485,6.48914 -1.44772,6.48914 0.33713,0 2.88406,-1.71489 5.65984,-3.81085 z M 76.522585,82.316277 c 2.775783,-2.095969 5.340437,-3.821067 5.699231,-3.833552 0.358794,-0.01249 3.015725,1.697004 5.904298,3.798863 2.888573,2.101859 5.417865,3.655645 5.620651,3.452858 0.202787,-0.202778 -0.44154,-3.036222 -1.431823,-6.296531 -0.990291,-3.260309 -1.794783,-6.251679 -1.787772,-6.647488 0.0068,-0.39581 2.482506,-2.444752 5.501087,-4.553206 3.01859,-2.108453 5.504653,-4.106142 5.524603,-4.43931 0.0199,-0.333167 -3.287155,-0.716522 -7.349118,-0.8519 l -7.38538,-0.246142 -2.081363,-6.250819 c -1.14475,-3.437951 -2.374147,-5.929759 -2.731993,-5.537353 -0.357847,0.392407 -1.49604,3.301114 -2.529319,6.463794 l -1.878688,5.750328 h -7.171697 c -3.944434,0 -7.165789,0.287517 -7.158567,0.638925 0.0072,0.351409 2.493122,2.364024 5.524222,4.472477 3.0311,2.108454 5.517,4.2456 5.524222,4.749216 0.0072,0.503614 -0.92242,3.666294 -2.06587,7.028178 -1.143451,3.361883 -1.785286,6.112515 -1.426301,6.112515 0.358984,0 2.923794,-1.714884 5.699577,-3.810853 z m 82.505295,-0.0454 c 2.77578,-2.095969 5.28672,-3.810853 5.57987,-3.810853 0.29315,0 2.94427,1.754554 5.89138,3.899008 2.94711,2.14445 5.50801,3.749379 5.69088,3.566511 0.18287,-0.182878 -0.57665,-3.279158 -1.68782,-6.88063 l -2.02033,-6.54813 5.44485,-3.997887 c 2.99466,-2.198838 5.44485,-4.307305 5.44485,-4.685483 0,-0.378178 -3.19102,-0.687596 -7.09117,-0.687596 h -7.09117 l -2.00377,-6.389253 c -1.10207,-3.514089 -2.25213,-6.389253 -2.5557,-6.389253 -0.30357,0 -1.45363,2.875164 -2.5557,6.389253 l -2.00377,6.389253 h -7.09117 c -3.90014,0 -7.09117,0.327811 -7.09117,0.728468 0,0.400657 2.2869,2.33264 5.08201,4.293295 2.79511,1.960656 5.28022,3.885529 5.52247,4.277496 0.24225,0.391968 -0.51124,3.510747 -1.67441,6.930622 -1.16317,3.419875 -2.11486,6.342489 -2.11486,6.49469 0,0.852054 1.81977,-0.17786 6.32473,-3.579511 z m 84.0993,-1.385302 c 1.70733,-1.334053 3.36373,-2.425551 3.6809,-2.425551 0.31716,0 2.99415,1.725099 5.94889,3.833552 2.95473,2.108453 5.56945,3.833552 5.81049,3.833552 0.24104,0 -0.47847,-2.971003 -1.5989,-6.602228 -1.12042,-3.631226 -2.02087,-6.793906 -2.00098,-7.028179 0.0198,-0.234272 2.50589,-2.151048 5.52448,-4.259502 3.01858,-2.108453 5.49407,-4.121068 5.50108,-4.472477 0.007,-0.351408 -3.21451,-0.638925 -7.15894,-0.638925 h -7.1717 l -1.87869,-5.750328 c -1.03327,-3.16268 -2.17146,-6.071387 -2.52931,-6.463794 -0.35785,-0.392406 -1.58675,2.099402 -2.73091,5.537353 l -2.08026,6.250819 -7.59945,0.42595 -7.59945,0.42595 6.10709,4.526673 6.1071,4.526671 -2.06057,6.058321 c -1.13331,3.332076 -2.06057,6.418618 -2.06057,6.858983 0,0.884971 3.03469,-0.921441 7.7897,-4.63684 z m 80.42646,1.408001 c 2.95474,-2.108453 5.59711,-3.833552 5.87195,-3.833552 0.27483,0 2.86307,1.719703 5.75164,3.821562 2.88857,2.101859 5.40118,3.672325 5.58358,3.489924 0.1824,-0.182391 -0.46192,-2.900867 -1.43182,-6.041044 -0.96991,-3.140177 -1.76346,-6.152725 -1.76346,-6.69455 0,-0.541824 2.58765,-2.897413 5.75033,-5.234642 l 5.75033,-4.249507 -7.59945,-0.42595 -7.59945,-0.42595 -2.08027,-6.250819 c -1.14415,-3.437951 -2.37305,-5.929759 -2.7309,-5.537353 -0.35785,0.392407 -1.49604,3.301114 -2.52932,6.463794 l -1.87869,5.750328 h -7.17169 c -3.94444,0 -7.16596,0.287517 -7.15895,0.638925 0.007,0.351409 2.48251,2.364024 5.50109,4.472477 3.01859,2.108454 5.50465,4.106465 5.5246,4.440024 0.0199,0.333559 -0.88141,3.49624 -2.00301,7.028179 -1.1216,3.531938 -1.84115,6.421706 -1.59901,6.421706 0.24215,0 2.85777,-1.725099 5.8125,-3.833552 z m 82.3478,0 c 2.89763,-2.108453 5.49837,-3.833552 5.77943,-3.833552 0.28105,0 2.92227,1.754554 5.86938,3.899008 2.9471,2.14445 5.52634,3.731038 5.73163,3.525747 0.20529,-0.205291 0.0131,-1.320377 -0.42695,-2.477965 -0.44011,-1.157591 -1.38481,-4.073273 -2.09932,-6.479294 l -1.29911,-4.374582 5.48309,-4.025965 c 3.01569,-2.21428 5.48308,-4.335382 5.48308,-4.71356 0,-0.378178 -3.19102,-0.687596 -7.09116,-0.687596 h -7.09117 l -2.00377,-6.389253 c -1.10207,-3.514089 -2.25214,-6.389253 -2.5557,-6.389253 -0.30357,0 -1.45364,2.875164 -2.55571,6.389253 l -2.00377,6.389253 h -7.09117 c -3.90014,0 -7.09116,0.313799 -7.09116,0.697332 0,0.383533 2.46805,2.472804 5.48455,4.642825 l 5.48455,3.945494 -2.06416,6.644855 c -1.1353,3.65467 -2.06993,6.740693 -2.07695,6.85783 -0.0404,0.672192 1.41678,-0.187827 6.13439,-3.620577 z M 35.32477,47.365662 c 2.897633,-2.108454 5.532904,-3.833552 5.856158,-3.833552 0.323254,0 2.967294,1.751733 5.875647,3.89274 2.908353,2.141007 5.484335,3.696319 5.724406,3.456248 0.240071,-0.240071 -0.543252,-3.350488 -1.740718,-6.912037 l -2.177212,-6.475545 5.491476,-3.950475 c 3.020311,-2.172761 5.491476,-4.264273 5.491476,-4.647806 0,-0.383533 -3.202675,-0.697332 -7.117055,-0.697332 h -7.117053 l -1.89676,-6.389253 c -1.043218,-3.514089 -2.181634,-6.389253 -2.529815,-6.389253 -0.348181,0 -1.534753,2.875164 -2.636827,6.389253 l -2.00377,6.389253 h -7.091169 c -3.900143,0 -7.091169,0.319635 -7.091169,0.710299 0,0.390666 2.089324,2.149273 4.642941,3.908016 6.800133,4.68343 6.718449,4.46318 4.296338,11.58448 -1.168242,3.434772 -2.124076,6.369572 -2.124076,6.521777 0,0.725446 1.279655,-0.01497 6.147182,-3.556813 z m 83.14664,-0.652742 c 2.49136,-1.825534 5.08004,-3.10798 5.75265,-2.849879 0.6726,0.258101 3.34048,2.068057 5.92863,4.022125 2.58814,1.954068 4.85265,3.403281 5.03224,3.220474 0.17959,-0.182807 -0.59215,-3.20754 -1.71498,-6.72163 -1.12283,-3.514089 -2.03032,-6.58093 -2.01664,-6.815203 0.0137,-0.234272 2.4946,-2.151048 5.51319,-4.259502 3.01858,-2.108453 5.49407,-4.121068 5.50109,-4.472477 0.007,-0.351409 -3.21429,-0.638925 -7.15844,-0.638925 h -7.1712 l -2.34062,-7.028178 -2.34063,-7.028178 -2.2705,6.815203 -2.27049,6.815203 -7.59842,0.42595 -7.59842,0.42595 6.11695,4.49768 6.11696,4.497679 -2.07043,6.087313 c -3.02702,8.899832 -3.25238,8.752194 4.58906,3.006395 z m 81.55668,0.652742 c 2.95474,-2.108454 5.6869,-3.823338 6.07148,-3.810853 0.38459,0.01248 2.96868,1.736337 5.74243,3.830785 2.77375,2.094446 5.21324,3.638019 5.4211,3.430162 0.20786,-0.207858 -0.45332,-3.114601 -1.46928,-6.459431 -1.01596,-3.344828 -1.73036,-6.397807 -1.58755,-6.784398 0.14281,-0.38659 2.75146,-2.558057 5.79701,-4.825482 l 5.53735,-4.122592 -7.59842,-0.42595 -7.59842,-0.42595 -2.27049,-6.815203 -2.2705,-6.815203 -2.34063,7.028178 -2.34062,7.028178 h -7.17119 c -3.94416,0 -7.15488,0.287516 -7.13493,0.638925 0.0199,0.351409 2.50601,2.364024 5.5246,4.472477 3.01858,2.108454 5.49406,4.106464 5.50108,4.440024 0.007,0.333559 -0.90492,3.49624 -2.02651,7.028179 -1.12161,3.531938 -1.84116,6.421706 -1.59901,6.421706 0.24214,0 2.85777,-1.725099 5.8125,-3.833552 z m 82.34779,0 c 2.89764,-2.108454 5.53291,-3.833552 5.85616,-3.833552 0.32325,0 2.9673,1.751733 5.87565,3.89274 2.90835,2.141007 5.43471,3.745937 5.61414,3.56651 0.17943,-0.179427 -0.591,-3.299117 -1.71207,-6.932644 l -2.03831,-6.606413 5.46284,-3.929868 c 3.00455,-2.161428 5.46283,-4.243667 5.46283,-4.6272 0,-0.383533 -3.19103,-0.697332 -7.09117,-0.697332 h -7.09117 l -2.00377,-6.389253 c -1.10207,-3.514089 -2.25214,-6.389253 -2.5557,-6.389253 -0.30357,0 -1.45363,2.875164 -2.5557,6.389253 l -2.00378,6.389253 h -7.16215 c -3.94658,0 -7.03467,0.348325 -6.87819,0.775836 0.15617,0.426709 2.65594,2.516713 5.55503,4.644452 l 5.27108,3.868615 -2.06366,6.643229 c -1.13502,3.653775 -2.06942,6.739067 -2.07645,6.856204 -0.0404,0.67219 1.41679,-0.187827 6.13439,-3.620577 z m 83.05301,-0.583572 c 2.43986,-1.787488 4.69131,-3.24998 5.00322,-3.24998 0.31192,0 2.98463,1.725098 5.93936,3.833552 2.95474,2.108453 5.54944,3.833552 5.76602,3.833552 0.21658,0 -0.52294,-2.971003 -1.64337,-6.602228 -1.12043,-3.631226 -2.03128,-6.793906 -2.02412,-7.028179 0.007,-0.234272 2.493,-2.151048 5.5241,-4.259502 3.03111,-2.108453 5.517,-4.121068 5.52423,-4.472477 0.007,-0.351409 -3.21392,-0.638925 -7.15807,-0.638925 h -7.1712 l -2.34062,-7.028178 -2.34063,-7.028178 -2.27049,6.815203 -2.27049,6.815203 -7.59843,0.42595 -7.59841,0.42595 5.75032,4.201096 c 3.16268,2.310602 5.7474,4.610733 5.74382,5.111402 -0.004,0.500669 -0.76735,3.402116 -1.69729,6.447659 -2.48798,8.1482 -2.786,8.001209 4.86205,2.39808 z m 81.56137,0.583572 c 2.95473,-2.108454 5.61712,-3.833552 5.91641,-3.833552 0.2993,0 2.90754,1.719703 5.79612,3.821562 2.88857,2.101859 5.40118,3.672326 5.58358,3.489928 0.1824,-0.182399 -0.46193,-2.900871 -1.43182,-6.041048 -0.96991,-3.140178 -1.76346,-6.17451 -1.76346,-6.742961 0,-0.568451 2.58765,-2.92404 5.75033,-5.234642 l 5.75032,-4.201096 -7.59841,-0.42595 -7.59843,-0.42595 -2.27049,-6.815203 -2.27049,-6.815203 -2.34063,7.028178 -2.34062,7.028178 h -7.1712 c -3.94415,0 -7.17045,0.287516 -7.16955,0.638925 8.5e-4,0.351409 1.82185,1.897163 4.04653,3.435008 7.95039,5.495825 7.42013,4.225155 5.02196,12.034189 -1.1643,3.791254 -1.92915,6.893189 -1.69965,6.893189 0.22949,0 2.83476,-1.725099 5.7895,-3.833552 z"
     style="fill:#33335f;stroke:none;stroke-width:0.8519004;fill-opacity:1" />
</svg>
